<svg width="24" height="24" viewBox="0 0 24 24" fill="none" xmlns="http://www.w3.org/2000/svg">
<path fill-rule="evenodd" clip-rule="evenodd" d="M6.39998 12.474H15.336L11.432 16.378C11.12 16.69 11.12 17.202 11.432 17.514C11.744 17.826 12.248 17.826 12.56 17.514L17.832 12.242C18.144 11.93 18.144 11.426 17.832 11.114L12.568 5.83396C12.4185 5.68416 12.2156 5.59998 12.004 5.59998C11.7924 5.59998 11.5894 5.68416 11.44 5.83396C11.128 6.14596 11.128 6.64996 11.44 6.96196L15.336 10.874H6.39998C5.95998 10.874 5.59998 11.234 5.59998 11.674C5.59998 12.114 5.95998 12.474 6.39998 12.474Z" fill="white"/>
</svg>
