<svg width="34" height="27" viewBox="0 0 34 27" fill="none" xmlns="http://www.w3.org/2000/svg">
<path fill-rule="evenodd" clip-rule="evenodd" d="M28.7106 0.957806C29.2894 0.384022 30.0708 0.0610984 30.8858 0.0588497C31.7009 0.056601 32.484 0.375208 33.066 0.945789C33.648 1.51637 33.9821 2.29308 33.996 3.108C34.0099 3.92291 33.7025 4.71055 33.1403 5.30064L16.6292 25.9394C16.3455 26.2451 16.003 26.4904 15.6222 26.6606C15.2415 26.8309 14.8304 26.9226 14.4134 26.9303C13.9964 26.938 13.5821 26.8616 13.1953 26.7056C12.8086 26.5495 12.4572 26.3171 12.1623 26.0221L1.22252 15.0782C0.917754 14.7942 0.673306 14.4518 0.503762 14.0712C0.334218 13.6907 0.243051 13.28 0.235703 12.8635C0.228354 12.447 0.304973 12.0332 0.460988 11.647C0.617004 11.2607 0.849219 10.9098 1.14378 10.6153C1.43835 10.3207 1.78922 10.0885 2.17548 9.93248C2.56173 9.77647 2.97546 9.69985 3.39197 9.7072C3.80848 9.71455 4.21924 9.80571 4.59975 9.97526C4.98026 10.1448 5.32273 10.3892 5.60672 10.694L14.2676 19.3507L28.632 1.0488C28.6576 1.01676 28.6853 0.986368 28.7147 0.957806H28.7106Z" fill="#198754"/>
</svg>
