<svg width="16" height="16" viewBox="0 0 16 16" fill="none" xmlns="http://www.w3.org/2000/svg">
<g clip-path="url(#clip0_79_11313)">
<path fill-rule="evenodd" clip-rule="evenodd" d="M8 15C9.85652 15 11.637 14.2625 12.9497 12.9497C14.2625 11.637 15 9.85652 15 8C15 6.14348 14.2625 4.36301 12.9497 3.05025C11.637 1.7375 9.85652 1 8 1C6.14348 1 4.36301 1.7375 3.05025 3.05025C1.7375 4.36301 1 6.14348 1 8C1 9.85652 1.7375 11.637 3.05025 12.9497C4.36301 14.2625 6.14348 15 8 15ZM8 16C10.1217 16 12.1566 15.1571 13.6569 13.6569C15.1571 12.1566 16 10.1217 16 8C16 5.87827 15.1571 3.84344 13.6569 2.34315C12.1566 0.842855 10.1217 0 8 0C5.87827 0 3.84344 0.842855 2.34315 2.34315C0.842855 3.84344 0 5.87827 0 8C0 10.1217 0.842855 12.1566 2.34315 13.6569C3.84344 15.1571 5.87827 16 8 16Z" fill="#ABB5BE"/>
<path fill-rule="evenodd" clip-rule="evenodd" d="M10.9697 4.97001C11.1096 4.83128 11.2986 4.7532 11.4956 4.75266C11.6927 4.75211 11.882 4.82915 12.0227 4.9671C12.1635 5.10505 12.2442 5.29285 12.2476 5.48987C12.2509 5.6869 12.1766 5.87734 12.0407 6.02001L8.04868 11.01C7.98008 11.0839 7.89727 11.1432 7.80522 11.1844C7.71316 11.2255 7.61376 11.2477 7.51294 11.2496C7.41212 11.2514 7.31195 11.233 7.21844 11.1952C7.12493 11.1575 7.03998 11.1013 6.96868 11.03L4.32368 8.38401C4.25 8.31534 4.1909 8.23254 4.1499 8.14054C4.10891 8.04854 4.08687 7.94923 4.08509 7.84853C4.08332 7.74783 4.10184 7.6478 4.13956 7.55441C4.17728 7.46102 4.23343 7.37619 4.30465 7.30497C4.37587 7.23375 4.4607 7.1776 4.55409 7.13988C4.64748 7.10216 4.7475 7.08364 4.84821 7.08541C4.94891 7.08719 5.04822 7.10923 5.14022 7.15022C5.23222 7.19122 5.31502 7.25032 5.38368 7.32401L7.47768 9.41701L10.9507 4.99201C10.9569 4.98426 10.9636 4.97691 10.9707 4.97001H10.9697Z" fill="#ABB5BE"/>
</g>
<defs>
<clipPath id="clip0_79_11313">
<rect width="16" height="16" fill="white"/>
</clipPath>
</defs>
</svg>
