<svg width="12" height="11" viewBox="0 0 12 11" fill="black" xmlns="http://www.w3.org/2000/svg">
<path fill-rule="evenodd" clip-rule="evenodd" d="M1.49768 1.03125C1.49768 0.940082 1.5339 0.852648 1.59836 0.788182C1.66283 0.723716 1.75026 0.6875 1.84143 0.6875H10.0914C10.1826 0.6875 10.27 0.723716 10.3345 0.788182C10.399 0.852648 10.4352 0.940082 10.4352 1.03125V2.40625C10.4352 2.49102 10.4038 2.5728 10.3472 2.63588L7.34143 5.97575V9.28125C7.34138 9.35337 7.31864 9.42364 7.27644 9.48212C7.23425 9.54061 7.17473 9.58434 7.10631 9.60713L5.04381 10.2946C4.99216 10.3118 4.93716 10.3165 4.88334 10.3083C4.82953 10.3001 4.77843 10.2792 4.73426 10.2474C4.69009 10.2156 4.6541 10.1737 4.62927 10.1253C4.60444 10.0768 4.59147 10.0232 4.59143 9.96875V5.97575L1.58568 2.63588C1.52904 2.5728 1.4977 2.49102 1.49768 2.40625V1.03125ZM2.18518 1.375V2.27425L5.19093 5.61413C5.24758 5.6772 5.27892 5.75898 5.27893 5.84375V9.49163L6.65393 9.03375V5.84375C6.65395 5.75898 6.68529 5.6772 6.74193 5.61413L9.74768 2.27425V1.375H2.18518Z" fill="black"/>
</svg>
