<svg width="19" height="19" viewBox="0 0 19 19" fill="none" xmlns="http://www.w3.org/2000/svg">
<path fill-rule="evenodd" clip-rule="evenodd" d="M9.49996 3.16669C6.00396 3.16669 3.16663 6.00402 3.16663 9.50002C3.16663 12.996 6.00396 15.8334 9.49996 15.8334C12.996 15.8334 15.8333 12.996 15.8333 9.50002C15.8333 6.00402 12.996 3.16669 9.49996 3.16669ZM10.1333 13.9333H8.86667V12.6667H10.1333V13.9333ZM11.4443 9.02498L10.8743 9.60765C10.5577 9.93065 10.3297 10.222 10.2157 10.678C10.165 10.8806 10.1333 11.1086 10.1333 11.4H8.86666V11.0833C8.86666 10.792 8.91733 10.5133 9.006 10.2536C9.13266 9.88631 9.34166 9.55698 9.60766 9.29098L10.393 8.49298C10.6843 8.21431 10.8237 7.79631 10.7413 7.35298C10.659 6.89698 10.3043 6.51065 9.861 6.38398C9.158 6.18765 8.50566 6.58665 8.29666 7.18831C8.22066 7.42265 8.02433 7.59998 7.77733 7.59998H7.58733C7.22 7.59998 6.96666 7.24531 7.068 6.89065C7.34033 5.95965 8.132 5.25031 9.11366 5.09831C10.0763 4.94631 10.9947 5.44665 11.5647 6.23831C12.312 7.27065 12.0903 8.37898 11.4443 9.02498Z" fill="white"/>
</svg>
