<svg width="129" height="44" viewBox="0 0 129 44" fill="none" xmlns="http://www.w3.org/2000/svg">
<g filter="url(#filter0_d_72_11149)">
<path d="M38.337 11.5684C38.337 10.126 36.9881 9.23198 34.9657 9.23198C32.8487 9.23198 31.8766 10.2199 31.8766 11.5684C31.8766 12.9169 32.8487 13.9048 34.9657 13.9048C36.9881 13.9048 38.337 12.9169 38.337 11.5684ZM41.6613 6.09587V15.426C41.6613 15.8806 41.4103 16.1315 40.9555 16.1315H39.0427C38.5879 16.1315 38.337 15.8806 38.337 15.426V14.6438C37.3766 15.8708 35.8832 16.5391 33.8839 16.5391C31.0614 16.5391 28.4899 14.8927 28.4899 11.5684C28.4899 8.24409 31.0614 6.59771 33.8839 6.59771C35.8832 6.59771 37.3766 7.23003 38.337 8.1931V6.25253C38.337 4.07312 37.0824 3.21068 35.4202 3.21068C34.0248 3.21068 32.8799 3.8222 32.5978 4.98252C32.4565 5.39043 32.2841 5.62558 31.8608 5.62558H29.9162C29.4617 5.62558 29.1796 5.37466 29.2107 4.88826C29.5871 1.86218 32.1902 0.0433731 35.4202 0.0433731C38.9015 0.0433731 41.6613 2.16006 41.6613 6.09587Z" fill="#E8EAEE"/>
<path d="M60.1004 11.4429C59.0655 14.4693 56.1018 16.5391 52.6051 16.5391C47.8538 16.5391 44.3256 12.9484 44.3256 8.29105C44.3256 3.63402 47.8538 0.0433731 52.6051 0.0433731C56.1018 0.0433731 59.0497 2.11309 60.1004 5.13917C60.2886 5.62558 60.0064 5.93922 59.5204 5.93922H57.3406C56.9643 5.93922 56.6976 5.7668 56.494 5.43739C55.7412 4.15161 54.2985 3.36734 52.6051 3.36734C49.8454 3.36734 47.7126 5.46859 47.7126 8.29105C47.7126 11.1139 49.8454 13.2148 52.6051 13.2148C54.3142 13.2148 55.757 12.4151 56.494 11.1608C56.6976 10.8156 56.9485 10.6432 57.3406 10.6432H59.5204C60.0064 10.6432 60.2886 10.9569 60.1004 11.4429Z" fill="#E8EAEE"/>
<path d="M77.9124 11.4429C76.8775 14.4693 73.9138 16.5391 70.4168 16.5391C65.6658 16.5391 62.1376 12.9484 62.1376 8.29105C62.1376 3.63402 65.6658 0.0433731 70.4168 0.0433731C73.9138 0.0433731 76.8618 2.11309 77.9124 5.13917C78.1006 5.62558 77.8185 5.93922 77.3324 5.93922H75.1523C74.7759 5.93922 74.5096 5.7668 74.3056 5.43739C73.5532 4.15161 72.1105 3.36734 70.4168 3.36734C67.6574 3.36734 65.5246 5.46859 65.5246 8.29105C65.5246 11.1139 67.6574 13.2148 70.4168 13.2148C72.1262 13.2148 73.569 12.4151 74.3056 11.1608C74.5096 10.8156 74.7605 10.6432 75.1523 10.6432H77.3324C77.8185 10.6432 78.1006 10.9569 77.9124 11.4429Z" fill="#E8EAEE"/>
<path d="M92.5213 6.95834C92.0768 4.28817 90.1695 3.13222 88.1511 3.13222C85.6221 3.13222 83.9063 4.61222 83.4454 6.95834H92.5213ZM95.9281 8.32261C95.9281 8.5893 95.9123 8.84021 95.8969 9.09079C95.8499 9.54566 95.5675 9.74961 95.1442 9.74961H92.4941H83.4581C83.9737 12.3195 85.8861 13.6385 88.2762 13.6385C89.7656 13.6385 91.0047 13.0112 91.6786 12.133C91.9296 11.8663 92.165 11.7096 92.5414 11.7096L94.5484 11.6939C95.0657 11.6939 95.3481 12.0075 95.1442 12.4466C93.9993 15.0024 91.4277 16.5394 88.2289 16.5394C83.227 16.5394 79.9493 12.9954 79.9493 8.29142C79.9493 3.64981 83.2582 0.0434055 88.1665 0.0434055C92.8547 0.0434055 95.9281 3.80647 95.9281 8.32261Z" fill="#E8EAEE"/>
<path d="M110.431 11.7254C110.431 14.8142 107.734 16.5394 104.269 16.5394C101.054 16.5394 98.4982 15.0027 98.153 12.0233C98.1061 11.5372 98.3885 11.2863 98.843 11.2863H100.788C101.211 11.2863 101.383 11.5215 101.54 11.9136C101.807 13.0424 102.905 13.4972 104.269 13.4972C105.915 13.4972 107.044 12.9169 107.044 11.7254C107.044 8.60506 98.3412 10.8314 98.3412 4.85709C98.3412 1.79948 101.039 0.0434055 104.269 0.0434055C107.201 0.0434055 109.725 1.57976 110.071 4.55922C110.117 5.04528 109.835 5.2962 109.38 5.2962H107.436C107.013 5.2962 106.84 5.06105 106.683 4.65314C106.433 3.54012 105.382 3.08525 104.269 3.08525C102.857 3.08525 101.729 3.66558 101.729 4.85709C101.729 8.00897 110.431 5.7353 110.431 11.7254Z" fill="#E8EAEE"/>
<path d="M124.951 11.7254C124.951 14.8142 122.254 16.5394 118.788 16.5394C115.573 16.5394 113.018 15.0027 112.672 12.0233C112.625 11.5372 112.908 11.2863 113.362 11.2863H115.307C115.73 11.2863 115.903 11.5215 116.059 11.9136C116.326 13.0424 117.424 13.4972 118.788 13.4972C120.434 13.4972 121.564 12.9169 121.564 11.7254C121.564 8.60506 112.861 10.8314 112.861 4.85709C112.861 1.79948 115.558 0.0434055 118.788 0.0434055C121.72 0.0434055 124.245 1.57976 124.59 4.55922C124.637 5.04528 124.355 5.2962 123.9 5.2962H121.955C121.532 5.2962 121.36 5.06105 121.203 4.65314C120.952 3.54012 119.901 3.08525 118.788 3.08525C117.377 3.08525 116.248 3.66558 116.248 4.85709C116.248 8.00897 124.951 5.7353 124.951 11.7254Z" fill="#E8EAEE"/>
<path d="M21.7933 32.0919V1.54498C21.7933 1.04348 22.1999 0.636921 22.7017 0.636921H23.8238C24.3253 0.636921 24.7319 1.04348 24.7319 1.54498V32.0919C24.7319 32.5934 24.3253 33 23.8238 33H22.7017C22.1999 33 21.7933 32.5934 21.7933 32.0919Z" fill="#FFA61E"/>
<path d="M15.3127 32.122V24.8612C15.3127 24.3765 15.7059 23.9834 16.1906 23.9834H17.3734C17.8581 23.9834 18.2513 24.3765 18.2513 24.8612V32.122C18.2513 32.6067 17.8581 32.9999 17.3734 32.9999H16.1906C15.7059 32.9999 15.3127 32.6067 15.3127 32.122Z" fill="#FFA61E"/>
<path d="M7.68359 9.72765C7.68359 5.83711 10.8371 2.68323 14.7277 2.68323C18.6182 2.68323 21.7721 5.83711 21.7721 9.72765C21.7721 13.6178 18.6182 16.7717 14.7277 16.7717C10.8371 16.7717 7.68359 13.6178 7.68359 9.72765ZM24.4554 9.72765C24.4554 4.3551 20.1002 -2.86102e-05 14.7277 -2.86102e-05C9.35513 -2.86102e-05 5 4.3551 5 9.72765C5 15.1002 9.35513 19.4553 14.7277 19.4553C20.1002 19.4553 24.4554 15.1002 24.4554 9.72765Z" fill="#FFA61E"/>
</g>
<defs>
<filter id="filter0_d_72_11149" x="0.9942" y="0" width="127.962" height="43.0145" filterUnits="userSpaceOnUse" color-interpolation-filters="sRGB">
<feFlood flood-opacity="0" result="BackgroundImageFix"/>
<feColorMatrix in="SourceAlpha" type="matrix" values="0 0 0 0 0 0 0 0 0 0 0 0 0 0 0 0 0 0 127 0" result="hardAlpha"/>
<feOffset dy="6.0087"/>
<feGaussianBlur stdDeviation="2.0029"/>
<feComposite in2="hardAlpha" operator="out"/>
<feColorMatrix type="matrix" values="0 0 0 0 0 0 0 0 0 0 0 0 0 0 0 0 0 0 0.25 0"/>
<feBlend mode="normal" in2="BackgroundImageFix" result="effect1_dropShadow_72_11149"/>
<feBlend mode="normal" in="SourceGraphic" in2="effect1_dropShadow_72_11149" result="shape"/>
</filter>
</defs>
</svg>
