<svg width="20" height="20" viewBox="0 0 20 20" fill="none" xmlns="http://www.w3.org/2000/svg">
<path fill-rule="evenodd" clip-rule="evenodd" d="M15.3334 3.33331H4.66671C3.93337 3.33331 3.34004 3.93331 3.34004 4.66665L3.33337 16.6666L6.00004 14H15.3334C16.0667 14 16.6667 13.4 16.6667 12.6666V4.66665C16.6667 3.93331 16.0667 3.33331 15.3334 3.33331ZM6.66667 8H13.3333C13.7 8 14 8.3 14 8.66667C14 9.03333 13.7 9.33333 13.3333 9.33333H6.66667C6.3 9.33333 6 9.03333 6 8.66667C6 8.3 6.3 8 6.66667 8ZM10.6667 11.3333H6.66667C6.3 11.3333 6 11.0333 6 10.6667C6 10.3 6.3 10 6.66667 10H10.6667C11.0333 10 11.3333 10.3 11.3333 10.6667C11.3333 11.0333 11.0333 11.3333 10.6667 11.3333ZM13.3333 7.33333H6.66667C6.3 7.33333 6 7.03333 6 6.66667C6 6.3 6.3 6 6.66667 6H13.3333C13.7 6 14 6.3 14 6.66667C14 7.03333 13.7 7.33333 13.3333 7.33333Z" fill="white"/>
</svg>
