<svg width="21" height="17" viewBox="0 0 21 17" fill="none" xmlns="http://www.w3.org/2000/svg">
<path d="M19.4919 2.06121C19.6094 2.16079 19.6754 2.29566 19.6754 2.43627C19.6754 2.57688 19.6094 2.71175 19.4919 2.81133L18.1805 3.92058L15.6657 1.79559L16.9772 0.686335C17.0951 0.586741 17.2549 0.530792 17.4217 0.530792C17.5884 0.530792 17.7482 0.586741 17.8661 0.686335L19.4919 2.06015V2.06121ZM17.2915 4.67071L14.7767 2.54571L6.21015 9.78558C6.14094 9.84405 6.08885 9.91536 6.058 9.99383L5.0458 12.5587C5.02745 12.6055 5.02484 12.6556 5.03828 12.7036C5.05171 12.7515 5.08066 12.7953 5.12189 12.8302C5.16311 12.865 5.21499 12.8895 5.27172 12.9008C5.32845 12.9122 5.3878 12.91 5.44314 12.8945L8.47848 12.0391C8.57123 12.0134 8.65561 11.9697 8.72493 11.9116L17.2915 4.67177V4.67071Z" fill="#CC9A06"/>
<path fill-rule="evenodd" clip-rule="evenodd" d="M1.25757 14.3439C1.25757 14.7666 1.45628 15.1719 1.80999 15.4708C2.1637 15.7697 2.64343 15.9376 3.14365 15.9376H16.9749C17.4752 15.9376 17.9549 15.7697 18.3086 15.4708C18.6623 15.1719 18.861 14.7666 18.861 14.3439V7.96887C18.861 7.82798 18.7948 7.69285 18.6769 7.59322C18.559 7.49359 18.3991 7.43762 18.2323 7.43762C18.0656 7.43762 17.9057 7.49359 17.7878 7.59322C17.6699 7.69285 17.6036 7.82798 17.6036 7.96887V14.3439C17.6036 14.4848 17.5374 14.6199 17.4195 14.7195C17.3016 14.8191 17.1417 14.8751 16.9749 14.8751H3.14365C2.97691 14.8751 2.817 14.8191 2.6991 14.7195C2.58119 14.6199 2.51496 14.4848 2.51496 14.3439V2.65637C2.51496 2.51548 2.58119 2.38035 2.6991 2.28072C2.817 2.18109 2.97691 2.12512 3.14365 2.12512H11.3167C11.4834 2.12512 11.6433 2.06915 11.7612 1.96952C11.8791 1.86989 11.9454 1.73477 11.9454 1.59387C11.9454 1.45298 11.8791 1.31785 11.7612 1.21822C11.6433 1.11859 11.4834 1.06262 11.3167 1.06262H3.14365C2.64343 1.06262 2.1637 1.23053 1.80999 1.52942C1.45628 1.82831 1.25757 2.23368 1.25757 2.65637V14.3439Z" fill="#CC9A06" fill-opacity="0.84"/>
</svg>
