<svg width="56" height="48" viewBox="0 0 56 48" fill="none" xmlns="http://www.w3.org/2000/svg">
<path d="M53.6615 6.23843C53.9829 6.51088 54.1634 6.87989 54.1634 7.26459C54.1634 7.64928 53.9829 8.01829 53.6615 8.29074L50.0734 11.3256L43.1931 5.51169L46.7812 2.47683C47.1037 2.20434 47.5412 2.05127 47.9973 2.05127C48.4534 2.05127 48.8908 2.20434 49.2134 2.47683L53.6615 6.23552V6.23843ZM47.6412 13.3779L40.7609 7.564L17.323 27.372C17.1337 27.532 16.9912 27.7271 16.9068 27.9418L14.1374 34.9592C14.0872 35.0871 14.0801 35.2243 14.1168 35.3555C14.1536 35.4866 14.2328 35.6066 14.3456 35.7019C14.4584 35.7972 14.6003 35.8641 14.7555 35.8952C14.9107 35.9262 15.0731 35.9202 15.2245 35.8778L23.5291 33.5377C23.7828 33.4672 24.0137 33.3478 24.2034 33.1888L47.6412 13.3808V13.3779Z" fill="white"/>
<path fill-rule="evenodd" clip-rule="evenodd" d="M3.77313 39.8433C3.77313 40.9998 4.3168 42.1089 5.28453 42.9266C6.25227 43.7443 7.5648 44.2037 8.93338 44.2037H46.7752C48.1438 44.2037 49.4563 43.7443 50.4241 42.9266C51.3918 42.1089 51.9355 40.9998 51.9355 39.8433V22.4016C51.9355 22.0161 51.7542 21.6464 51.4317 21.3738C51.1091 21.1012 50.6716 20.9481 50.2154 20.9481C49.7592 20.9481 49.3217 21.1012 48.9991 21.3738C48.6765 21.6464 48.4953 22.0161 48.4953 22.4016V39.8433C48.4953 40.2288 48.3141 40.5985 47.9915 40.8711C47.6689 41.1437 47.2314 41.2968 46.7752 41.2968H8.93338C8.47719 41.2968 8.03968 41.1437 7.7171 40.8711C7.39452 40.5985 7.2133 40.2288 7.2133 39.8433V7.86678C7.2133 7.4813 7.39452 7.1116 7.7171 6.83902C8.03968 6.56644 8.47719 6.4133 8.93338 6.4133H31.2945C31.7507 6.4133 32.1882 6.26017 32.5107 5.98759C32.8333 5.71501 33.0145 5.34531 33.0145 4.95983C33.0145 4.57434 32.8333 4.20464 32.5107 3.93206C32.1882 3.65948 31.7507 3.50635 31.2945 3.50635H8.93338C7.5648 3.50635 6.25227 3.96575 5.28453 4.78349C4.3168 5.60123 3.77313 6.71032 3.77313 7.86678V39.8433Z" fill="white" fill-opacity="0.84"/>
</svg>
