<svg width="24" height="6" viewBox="0 0 24 6" fill="none" xmlns="http://www.w3.org/2000/svg">
<path fill-rule="evenodd" clip-rule="evenodd" d="M2.94445 0C1.325 0 0 1.325 0 2.94445C0 4.56389 1.325 5.88889 2.94445 5.88889C4.56389 5.88889 5.88889 4.56389 5.88889 2.94445C5.88889 1.325 4.56389 0 2.94445 0ZM20.6112 2.28882e-05C18.9917 2.28882e-05 17.6667 1.32502 17.6667 2.94447C17.6667 4.56392 18.9917 5.88892 20.6112 5.88892C22.2306 5.88892 23.5556 4.56392 23.5556 2.94447C23.5556 1.32502 22.2306 2.28882e-05 20.6112 2.28882e-05ZM11.7779 2.28882e-05C10.1585 2.28882e-05 8.8335 1.32502 8.8335 2.94447C8.8335 4.56392 10.1585 5.88892 11.7779 5.88892C13.3974 5.88892 14.7224 4.56392 14.7224 2.94447C14.7224 1.32502 13.3974 2.28882e-05 11.7779 2.28882e-05Z" fill="white"/>
</svg>
