<svg width="18" height="17" viewBox="0 0 18 17" fill="none" xmlns="http://www.w3.org/2000/svg">
<path d="M6.05105 5.84375C6.19695 5.84375 6.33687 5.89972 6.44004 5.99935C6.5432 6.09898 6.60116 6.2341 6.60116 6.375V12.75C6.60116 12.8909 6.5432 13.026 6.44004 13.1256C6.33687 13.2253 6.19695 13.2812 6.05105 13.2812C5.90516 13.2812 5.76523 13.2253 5.66207 13.1256C5.5589 13.026 5.50095 12.8909 5.50095 12.75V6.375C5.50095 6.2341 5.5589 6.09898 5.66207 5.99935C5.76523 5.89972 5.90516 5.84375 6.05105 5.84375ZM8.80159 5.84375C8.94749 5.84375 9.08741 5.89972 9.19058 5.99935C9.29374 6.09898 9.3517 6.2341 9.3517 6.375V12.75C9.3517 12.8909 9.29374 13.026 9.19058 13.1256C9.08741 13.2253 8.94749 13.2812 8.80159 13.2812C8.65569 13.2812 8.51577 13.2253 8.41261 13.1256C8.30944 13.026 8.25148 12.8909 8.25148 12.75V6.375C8.25148 6.2341 8.30944 6.09898 8.41261 5.99935C8.51577 5.89972 8.65569 5.84375 8.80159 5.84375ZM12.1022 6.375C12.1022 6.2341 12.0443 6.09898 11.9411 5.99935C11.838 5.89972 11.698 5.84375 11.5521 5.84375C11.4062 5.84375 11.2663 5.89972 11.1631 5.99935C11.06 6.09898 11.002 6.2341 11.002 6.375V12.75C11.002 12.8909 11.06 13.026 11.1631 13.1256C11.2663 13.2253 11.4062 13.2812 11.5521 13.2812C11.698 13.2812 11.838 13.2253 11.9411 13.1256C12.0443 13.026 12.1022 12.8909 12.1022 12.75V6.375Z" fill="white"/>
<path fill-rule="evenodd" clip-rule="evenodd" d="M15.9531 3.1875C15.9531 3.46929 15.8372 3.73954 15.6309 3.9388C15.4246 4.13806 15.1447 4.25 14.8529 4.25H14.3028V13.8125C14.3028 14.3761 14.071 14.9166 13.6583 15.3151C13.2457 15.7136 12.686 15.9375 12.1024 15.9375H5.5011C4.91751 15.9375 4.35782 15.7136 3.94516 15.3151C3.5325 14.9166 3.30067 14.3761 3.30067 13.8125V4.25H2.75056C2.45876 4.25 2.17892 4.13806 1.97259 3.9388C1.76626 3.73954 1.65034 3.46929 1.65034 3.1875V2.125C1.65034 1.84321 1.76626 1.57296 1.97259 1.3737C2.17892 1.17444 2.45876 1.0625 2.75056 1.0625H6.60131C6.60131 0.780707 6.71723 0.510456 6.92356 0.311199C7.12989 0.111942 7.40973 0 7.70153 0L9.90196 0C10.1938 0 10.4736 0.111942 10.6799 0.311199C10.8863 0.510456 11.0022 0.780707 11.0022 1.0625H14.8529C15.1447 1.0625 15.4246 1.17444 15.6309 1.3737C15.8372 1.57296 15.9531 1.84321 15.9531 2.125V3.1875ZM4.53071 4.25L4.40088 4.31269V13.8125C4.40088 14.0943 4.5168 14.3645 4.72313 14.5638C4.92946 14.7631 5.2093 14.875 5.5011 14.875H12.1024C12.3942 14.875 12.674 14.7631 12.8804 14.5638C13.0867 14.3645 13.2026 14.0943 13.2026 13.8125V4.31269L13.0728 4.25H4.53071ZM2.75056 3.1875V2.125H14.8529V3.1875H2.75056Z" fill="white"/>
</svg>
