<svg width="13" height="7" viewBox="0 0 13 7" fill="none" xmlns="http://www.w3.org/2000/svg">
<path fill-rule="evenodd" clip-rule="evenodd" d="M12.8532 6.85422C12.8068 6.90078 12.7516 6.93772 12.6909 6.96292C12.6302 6.98813 12.565 7.0011 12.4993 7.0011C12.4335 7.0011 12.3684 6.98813 12.3077 6.96292C12.2469 6.93772 12.1918 6.90078 12.1453 6.85422L6.49999 1.20788L0.854653 6.85422C0.80817 6.9007 0.752987 6.93758 0.692255 6.96273C0.631523 6.98789 0.56643 7.00084 0.500694 7.00084C0.434958 7.00084 0.369865 6.98789 0.309134 6.96273C0.248401 6.93758 0.193217 6.9007 0.146735 6.85422C0.100253 6.80774 0.0633812 6.75256 0.0382252 6.69182C0.0130692 6.63109 0.00012207 6.566 0.00012207 6.50026C0.00012207 6.43453 0.0130692 6.36943 0.0382252 6.3087C0.0633812 6.24797 0.100253 6.19279 0.146735 6.14631L6.14603 0.147008C6.19247 0.10045 6.24764 0.0635123 6.30838 0.0383086C6.36912 0.0131049 6.43423 0.000131607 6.49999 0.000131607C6.56575 0.000131607 6.63086 0.0131049 6.6916 0.0383086C6.75234 0.0635123 6.80751 0.10045 6.85395 0.147008L12.8532 6.14631C12.8998 6.19275 12.9367 6.24791 12.9619 6.30865C12.9871 6.36939 13.0001 6.4345 13.0001 6.50026C13.0001 6.56602 12.9871 6.63114 12.9619 6.69187C12.9367 6.75261 12.8998 6.80778 12.8532 6.85422Z" fill="white"/>
</svg>
